<?xml version="1.0" encoding="UTF-8"?>
<svg xmlns="http://www.w3.org/2000/svg" xmlns:xlink="http://www.w3.org/1999/xlink" width="50pt" height="50pt" viewBox="0 0 50 50" version="1.1">
<g id="surface1">
<path style=" stroke:none;fill-rule:nonzero;fill:#9651DA;fill-opacity:1;" d="M 24.765625 1.046875 C 24.558594 1.054688 24.355469 1.128906 24.191406 1.253906 L 1.371094 19.058594 C 0.941406 19.394531 0.863281 20.019531 1.203125 20.453125 C 1.539063 20.882813 2.164063 20.960938 2.597656 20.625 L 3.96875 19.550781 L 3.96875 45.636719 C 3.96875 46.179688 4.414063 46.628906 4.960938 46.628906 L 18.683594 46.628906 C 18.792969 46.644531 18.898438 46.644531 19.003906 46.628906 L 30.585938 46.628906 C 30.695313 46.644531 30.804688 46.644531 30.910156 46.628906 L 44.644531 46.628906 C 45.1875 46.628906 45.636719 46.179688 45.636719 45.636719 L 45.636719 19.550781 L 47.011719 20.625 C 47.441406 20.960938 48.066406 20.882813 48.402344 20.453125 C 48.738281 20.019531 48.660156 19.394531 48.226563 19.058594 L 40.675781 13.164063 L 40.675781 5.953125 L 34.722656 5.953125 L 34.722656 8.519531 L 25.410156 1.253906 C 25.226563 1.113281 25 1.039063 24.765625 1.046875 Z M 24.800781 3.292969 L 43.652344 18.003906 L 43.652344 44.644531 L 31.746094 44.644531 L 31.746094 25.792969 L 17.855469 25.792969 L 17.855469 44.644531 L 5.953125 44.644531 L 5.953125 18.003906 Z M 36.707031 7.9375 L 38.691406 7.9375 L 38.691406 11.613281 L 36.707031 10.0625 Z M 19.839844 27.777344 L 29.761719 27.777344 L 29.761719 44.644531 L 19.839844 44.644531 Z "/>
</g>
</svg>
