<?xml version="1.0" encoding="UTF-8"?>
<svg xmlns="http://www.w3.org/2000/svg" xmlns:xlink="http://www.w3.org/1999/xlink" width="50pt" height="50pt" viewBox="0 0 50 50" version="1.1">
<g id="surface1">
<path style=" stroke:none;fill-rule:nonzero;fill:#ffff00;fill-opacity:1;" d="M 39.683594 0 C 34.257813 0 29.828125 4.386719 29.761719 9.796875 L 15.78125 16.804688 C 14.136719 15.59375 12.109375 14.882813 9.921875 14.882813 C 4.453125 14.882813 0 19.332031 0 24.800781 C 0 30.269531 4.453125 34.722656 9.921875 34.722656 C 12.109375 34.722656 14.136719 34.007813 15.78125 32.800781 L 29.761719 39.804688 C 29.828125 45.214844 34.257813 49.601563 39.683594 49.601563 C 45.152344 49.601563 49.601563 45.152344 49.601563 39.683594 C 49.601563 34.214844 45.152344 29.761719 39.683594 29.761719 C 37.574219 29.761719 35.617188 30.433594 34.007813 31.558594 L 20.460938 24.800781 L 34.007813 18.042969 C 35.617188 19.171875 37.574219 19.839844 39.683594 19.839844 C 45.152344 19.839844 49.601563 15.386719 49.601563 9.921875 C 49.601563 4.453125 45.152344 0 39.683594 0 Z M 39.683594 1.984375 C 44.078125 1.984375 47.617188 5.527344 47.617188 9.921875 C 47.617188 14.316406 44.078125 17.855469 39.683594 17.855469 C 38.058594 17.855469 36.566406 17.351563 35.3125 16.523438 C 35.1875 16.109375 34.8125 15.824219 34.382813 15.8125 C 34.378906 15.808594 34.355469 15.816406 34.351563 15.8125 C 32.964844 14.558594 32.035156 12.808594 31.808594 10.851563 C 32.015625 10.5 31.992188 10.058594 31.746094 9.734375 C 31.847656 5.429688 35.351563 1.984375 39.683594 1.984375 Z M 29.980469 11.90625 C 30.347656 13.699219 31.199219 15.316406 32.398438 16.617188 L 19.65625 23.003906 C 19.316406 21.191406 18.507813 19.554688 17.332031 18.230469 Z M 9.921875 16.863281 C 11.757813 16.863281 13.445313 17.46875 14.789063 18.507813 C 14.800781 18.515625 14.808594 18.53125 14.820313 18.539063 C 14.828125 18.558594 14.839844 18.582031 14.851563 18.601563 C 14.933594 18.707031 15.039063 18.789063 15.160156 18.847656 C 15.164063 18.851563 15.1875 18.84375 15.191406 18.847656 C 16.675781 20.167969 17.65625 22.046875 17.824219 24.152344 C 17.714844 24.421875 17.726563 24.726563 17.855469 24.988281 C 17.835938 25.070313 17.824219 25.148438 17.824219 25.234375 C 17.707031 27.4375 16.707031 29.394531 15.160156 30.753906 C 15.066406 30.8125 14.980469 30.886719 14.910156 30.972656 C 13.546875 32.074219 11.820313 32.738281 9.921875 32.738281 C 5.527344 32.738281 1.984375 29.195313 1.984375 24.800781 C 1.984375 20.40625 5.527344 16.863281 9.921875 16.863281 Z M 19.65625 26.601563 L 32.398438 32.984375 C 31.199219 34.289063 30.347656 35.902344 29.980469 37.699219 L 17.332031 31.375 C 18.507813 30.046875 19.316406 28.414063 19.65625 26.601563 Z M 39.683594 31.746094 C 44.078125 31.746094 47.617188 35.289063 47.617188 39.683594 C 47.617188 44.078125 44.078125 47.617188 39.683594 47.617188 C 35.289063 47.617188 31.746094 44.078125 31.746094 39.683594 C 31.746094 37.296875 32.785156 35.152344 34.441406 33.699219 C 34.464844 33.679688 34.484375 33.660156 34.503906 33.636719 C 34.507813 33.632813 34.53125 33.640625 34.535156 33.636719 C 34.695313 33.570313 34.835938 33.460938 34.9375 33.328125 C 36.265625 32.339844 37.894531 31.746094 39.683594 31.746094 Z "/>
</g>
</svg>
